<?xml version="1.0" standalone="no"?>
<!DOCTYPE svg PUBLIC "-//W3C//DTD SVG 20010904//EN"
 "http://www.w3.org/TR/2001/REC-SVG-20010904/DTD/svg10.dtd">
<svg version="1.0" xmlns="http://www.w3.org/2000/svg"
 width="200.000000pt" height="40.000000pt" viewBox="0 0 200.000000 40.000000"
 preserveAspectRatio="xMidYMid meet">
<metadata>
Created by potrace 1.10, written by Peter Selinger 2001-2011
</metadata>
<g transform="translate(0.000000,40.000000) scale(0.100000,-0.100000)"
fill="#000000" stroke="none">
<path d="M1140 200 c0 -118 2 -140 15 -140 12 0 15 15 15 74 0 66 3 77 22 90
28 20 33 20 52 0 12 -11 16 -36 16 -90 0 -59 3 -74 15 -74 12 0 15 15 15 73 0
87 -15 121 -54 125 -16 2 -33 -1 -39 -7 -20 -20 -27 -11 -27 39 0 38 -4 50
-15 50 -13 0 -15 -22 -15 -140z"/>
<path d="M1350 200 c0 -114 3 -140 14 -140 8 0 16 6 19 13 4 10 7 10 18 -1 19
-18 63 -15 82 6 41 45 41 140 1 169 -21 15 -70 17 -79 3 -14 -23 -25 -7 -25
40 0 38 -4 50 -15 50 -13 0 -15 -22 -15 -140z m114 24 c25 -24 22 -109 -5
-127 -45 -32 -86 13 -75 83 9 54 49 76 80 44z"/>
<path d="M1901 291 c4 -48 -2 -63 -16 -41 -11 18 -71 11 -90 -10 -25 -28 -31
-99 -11 -138 19 -36 59 -51 88 -33 15 9 23 9 34 0 8 -6 16 -10 19 -8 2 3 5 65
6 139 1 120 -1 135 -16 138 -15 3 -17 -3 -14 -47z m-19 -68 c26 -23 25 -96 -2
-123 -24 -24 -30 -24 -56 -6 -14 11 -19 26 -19 64 0 73 35 103 77 65z"/>
<path d="M122 317 c-80 -45 -81 -201 -1 -242 34 -18 78 -19 100 -2 23 18 13
40 -12 26 -56 -30 -112 18 -112 96 0 77 56 126 112 96 14 -8 20 -7 24 3 6 15
-32 36 -66 36 -12 -1 -32 -6 -45 -13z"/>
<path d="M319 255 c0 -3 -1 -47 -1 -97 -1 -78 2 -94 16 -96 13 -3 16 7 16 65
0 80 6 93 51 102 19 4 34 11 34 16 0 17 -51 17 -65 1 -16 -20 -30 -20 -30 -1
0 13 -19 23 -21 10z"/>
<path d="M500 180 c0 -93 17 -120 73 -120 59 1 72 20 76 116 3 79 2 86 -15 82
-16 -3 -19 -13 -19 -76 0 -60 -3 -76 -18 -87 -19 -14 -46 -10 -59 9 -4 6 -8
44 -8 84 0 57 -3 72 -15 72 -12 0 -15 -16 -15 -80z"/>
<path d="M719 258 c0 -2 -1 -46 -2 -98 -2 -83 0 -95 16 -98 15 -3 17 6 17 77
0 77 1 82 25 93 42 19 55 -2 55 -94 0 -70 2 -79 18 -76 10 2 17 12 16 26 0 12
-1 49 -2 81 -1 39 -7 65 -18 75 -19 19 -65 21 -83 4 -11 -10 -14 -10 -18 0 -4
10 -22 18 -24 10z"/>
<path d="M967 249 c-27 -16 -48 -72 -41 -108 13 -62 86 -102 133 -72 22 14 4
32 -22 22 -23 -9 -55 2 -69 23 -4 6 -8 28 -8 49 0 42 31 82 58 74 41 -11 47
-11 47 3 0 19 -71 25 -98 9z"/>
<path d="M1570 176 c0 -76 2 -86 22 -100 36 -25 83 -20 108 11 17 22 20 38 18
97 -2 58 -6 71 -20 74 -16 3 -18 -6 -18 -77 0 -70 -3 -82 -20 -91 -14 -8 -26
-8 -40 0 -17 9 -20 21 -20 90 0 64 -3 80 -15 80 -12 0 -15 -16 -15 -84z"/>
</g>
</svg>
